{"extensionsUsed" : ["KHR_materials_pbrSpecularGlossiness"], "accessors" : [{"bufferView" : 0, "byteOffset" : 0, "componentType" : 5123, "count" : 840, "type" : "SCALAR", "max" : [737], "min" : [0]}, {"bufferView" : 1, "byteOffset" : 0, "componentType" : 5126, "count" : 738, "type" : "VEC3", "max" : [0.012609469704329967, 0.00967020820826292, 0.022901615127921104], "min" : [-0.012609470635652542, -0.009670201689004898, -0.022901615127921104], "name" : "POSITION"}, {"bufferView" : 1, "byteOffset" : 12, "componentType" : 5126, "count" : 738, "type" : "VEC3", "max" : [0.9861069917678833, 0.998214066028595, 0.988294780254364], "min" : [-0.9540220499038696, -0.995634138584137, -0.9878169894218445], "name" : "NORMAL"}, {"bufferView" : 1, "byteOffset" : 24, "componentType" : 5126, "count" : 738, "type" : "VEC2", "max" : [0.6217399835586548, 0.6178824305534363], "min" : [0.0021976716816425323, 0.002051711082458496], "name" : "TEXCOORD_0"}, {"bufferView" : 1, "byteOffset" : 32, "componentType" : 5126, "count" : 738, "type" : "VEC3", "max" : [1, 1, 1], "min" : [1, 1, 1], "name" : "COLOR_0"}, {"bufferView" : 0, "byteOffset" : 1680, "componentType" : 5123, "count" : 648, "type" : "SCALAR", "max" : [581], "min" : [0]}, {"bufferView" : 2, "byteOffset" : 0, "componentType" : 5126, "count" : 582, "type" : "VEC3", "max" : [0.04790404066443443, 0.01573200151324272, 0.04701089859008789], "min" : [-0.04790404066443443, -0.015732016414403915, -0.04701089859008789], "name" : "POSITION"}, {"bufferView" : 2, "byteOffset" : 12, "componentType" : 5126, "count" : 582, "type" : "VEC3", "max" : [0.9997431039810181, 1.0000044107437134, 0.99955815076828], "min" : [-0.9999572038650513, -0.998655378818512, -0.9996644258499146], "name" : "NORMAL"}, {"bufferView" : 2, "byteOffset" : 24, "componentType" : 5126, "count" : 582, "type" : "VEC2", "max" : [0.670635998249054, 0.627071738243103], "min" : [0.0009765625, 0.0013889074325561523], "name" : "TEXCOORD_0"}, {"bufferView" : 2, "byteOffset" : 32, "componentType" : 5126, "count" : 582, "type" : "VEC3", "max" : [1, 1, 1], "min" : [1, 1, 1], "name" : "COLOR_0"}, {"bufferView" : 0, "byteOffset" : 2976, "componentType" : 5123, "count" : 420, "type" : "SCALAR", "max" : [366], "min" : [0]}, {"bufferView" : 3, "byteOffset" : 0, "componentType" : 5126, "count" : 367, "type" : "VEC3", "max" : [0.012386245653033257, 0.009824445471167564, 0.009228269569575787], "min" : [-0.012386245653033257, -0.00982445478439331, -0.009228268638253212], "name" : "POSITION"}, {"bufferView" : 3, "byteOffset" : 12, "componentType" : 5126, "count" : 367, "type" : "VEC3", "max" : [0.9372566938400269, 0.9960234761238098, 0.9426809549331665], "min" : [-0.9874433279037476, -0.9976799488067627, -0.9521125555038452], "name" : "NORMAL"}, {"bufferView" : 3, "byteOffset" : 24, "componentType" : 5126, "count" : 367, "type" : "VEC2", "max" : [0.6345395445823669, 0.5662358999252319], "min" : [0.0022079944610595703, 0.00197446346282959], "name" : "TEXCOORD_0"}, {"bufferView" : 3, "byteOffset" : 32, "componentType" : 5126, "count" : 367, "type" : "VEC3", "max" : [1, 1, 1], "min" : [1, 1, 1], "name" : "COLOR_0"}], "asset" : {"generator" : "Aspose.3D 21.8.1", "version" : "2.0"}, "buffers" : [{"uri" : "data:application/octet-stream;base64,", "byteLength" : 87784}], "bufferViews" : [{"buffer" : 0, "byteOffset" : 0, "byteLength" : 3816, "target" : 34963}, {"buffer" : 0, "byteOffset" : 3820, "byteLength" : 36960, "byteStride" : 44, "target" : 34962}, {"buffer" : 0, "byteOffset" : 40784, "byteLength" : 28512, "byteStride" : 44, "target" : 34962}, {"buffer" : 0, "byteOffset" : 69300, "byteLength" : 18480, "byteStride" : 44, "target" : 34962}], "images" : [{"uri" : "data:image/png;base64,"}, {"uri" : "data:image/png;base64,"}, {"uri" : "data:image/png;base64,"}, {"uri" : "data:image/png;base64,"}, {"uri" : "data:image/png;base64,"}, {"uri" : "data:image/png;base64,"}, {"uri" : "data:image/png;base64,"}, {"uri" : "data:image/png;base64,"}, {"uri" : "data:image/png;base64,"}, {"uri" : "data:image/png;base64,"}, {"uri" : "data:image/png;base64,"}, {"uri" : "data:image/png;base64,"}], "materials" : [{"name" : "", "extensions" : {"KHR_materials_pbrSpecularGlossiness" : {"diffuseFactor" : [1, 1, 1, 1], "diffuseTexture" : {"index" : 0, "texCoord" : 0}, "specularFactor" : [1, 1, 1], "glossinessFactor" : 1, "specularGlossinessTexture" : {"index" : 1, "texCoord" : 0, "scale" : 1}}}, "pbrMetallicRoughness" : {"baseColorFactor" : [1, 1, 1, 1], "baseColorTexture" : {"index" : 2, "texCoord" : 0}, "metallicFactor" : 1, "roughnessFactor" : 1, "metallicRoughnessTexture" : {"index" : 3, "texCoord" : 0}}, "emissiveFactor" : [0, 0, 0], "alphaMode" : "OPAQUE", "doubleSided" : true}, {"name" : "", "extensions" : {"KHR_materials_pbrSpecularGlossiness" : {"diffuseFactor" : [1, 1, 1, 1], "diffuseTexture" : {"index" : 4, "texCoord" : 0}, "specularFactor" : [1, 1, 1], "glossinessFactor" : 1, "specularGlossinessTexture" : {"index" : 5, "texCoord" : 0, "scale" : 1}}}, "pbrMetallicRoughness" : {"baseColorFactor" : [1, 1, 1, 1], "baseColorTexture" : {"index" : 6, "texCoord" : 0}, "metallicFactor" : 1, "roughnessFactor" : 1, "metallicRoughnessTexture" : {"index" : 7, "texCoord" : 0}}, "emissiveFactor" : [0, 0, 0], "alphaMode" : "OPAQUE", "doubleSided" : true}, {"name" : "", "extensions" : {"KHR_materials_pbrSpecularGlossiness" : {"diffuseFactor" : [1, 1, 1, 1], "diffuseTexture" : {"index" : 8, "texCoord" : 0}, "specularFactor" : [1, 1, 1], "glossinessFactor" : 1, "specularGlossinessTexture" : {"index" : 9, "texCoord" : 0, "scale" : 1}}}, "pbrMetallicRoughness" : {"baseColorFactor" : [1, 1, 1, 1], "baseColorTexture" : {"index" : 10, "texCoord" : 0}, "metallicFactor" : 1, "roughnessFactor" : 1, "metallicRoughnessTexture" : {"index" : 11, "texCoord" : 0}}, "emissiveFactor" : [0, 0, 0], "alphaMode" : "OPAQUE", "doubleSided" : true}], "meshes" : [{"primitives" : [{"attributes" : {"POSITION" : 1, "NORMAL" : 2, "TEXCOORD_0" : 3, "COLOR_0" : 4}, "indices" : 0, "material" : 0, "mode" : 4}]}, {"primitives" : [{"attributes" : {"POSITION" : 6, "NORMAL" : 7, "TEXCOORD_0" : 8, "COLOR_0" : 9}, "indices" : 5, "material" : 1, "mode" : 4}]}, {"primitives" : [{"attributes" : {"POSITION" : 11, "NORMAL" : 12, "TEXCOORD_0" : 13, "COLOR_0" : 14}, "indices" : 10, "material" : 2, "mode" : 4}]}], "nodes" : [{"matrix" : [0.5278491973876953, 1.1081658008609344E-15, 2.6661209276132504E-32, 0, -1.1081664265304366E-15, 0.5278494954109192, 2.7812618880631298E-24, 0, -2.6661218490052423E-32, -2.7812618880631298E-24, 0.5278494954109192, 0, -0.0047348481602966785, -0.0019583108369261026, 5.2619725465774536E-08, 1], "mesh" : 0, "name" : "node_id40"}, {"matrix" : [0.5278491973876953, 1.1081658008609344E-15, 2.6661209276132504E-32, 0, -1.1081664265304366E-15, 0.5278494954109192, 2.7812618880631298E-24, 0, -2.6661218490052423E-32, -2.7812618880631298E-24, 0.5278494954109192, 0, -0.0021219991613179445, -2.201370682963777E-11, -0.001393463579006493, 1], "mesh" : 1, "name" : "node_id42"}, {"matrix" : [0.5278491973876953, 1.1081658008609344E-15, 2.6661209276132504E-32, 0, -1.1081664265304366E-15, 0.5278494954109192, 2.7812618880631298E-24, 0, -2.6661218490052423E-32, -2.7812618880631298E-24, 0.5278494954109192, 0, 0.0035999754909425974, 0.00037479415186680853, -0.0005912507185712457, 1], "mesh" : 2, "name" : "node_id44"}, {"children" : [0, 1, 2], "matrix" : [0.9999999999999997, 2.5005810755374114E-08, 1.484312217254407E-31, 0, -2.5005810755374114E-08, 0.9999999999999997, 5.269042982977682E-24, 0, -1.6674530031168865E-32, -5.2690429829776836E-24, 1, 0, 0, 0, 0, 1], "name" : "node_id39"}, {"children" : [3], "matrix" : [1, 0, 0, 0, 0, 1, 5.269042982977683E-24, 0, 0, -5.269042982977683E-24, 1, 0, 0, 0, 0, 1], "name" : "node_id38"}, {"children" : [4], "matrix" : [10124.13407255626, 0, 0, 0, 0, 0.0003465343697984097, 10124.13441909063, 0, 0, 10124.13441909063, 0.0003465343697984097, 0, 21.483654022216797, 14.107593536376953, 256.0000305175781, 1], "name" : "node_id37"}, {"children" : [5], "matrix" : [0.0005150927419910038, -0.00038111220743135716, 0.000767745440133934, 0, -0.0008567575268745967, -0.00020236835196225543, 0.00047435586383090517, 0, -2.541543994256866E-05, -0.0009021088983995632, -0.00043075920467789715, 0, 0.00650643277913332, 0.23093995451927185, 0.39413973689079285, 1], "name" : "node_id46"}, {"children" : [6], "name" : "root"}], "samplers" : [{"magFilter" : 9728, "minFilter" : 9985, "wrapS" : 10497, "wrapT" : 10497}, {"magFilter" : 9728, "minFilter" : 9985, "wrapS" : 10497, "wrapT" : 10497}, {"magFilter" : 9728, "minFilter" : 9985, "wrapS" : 10497, "wrapT" : 10497}, {"magFilter" : 9728, "minFilter" : 9985, "wrapS" : 10497, "wrapT" : 10497}, {"magFilter" : 9728, "minFilter" : 9985, "wrapS" : 10497, "wrapT" : 10497}, {"magFilter" : 9728, "minFilter" : 9985, "wrapS" : 10497, "wrapT" : 10497}, {"magFilter" : 9728, "minFilter" : 9985, "wrapS" : 10497, "wrapT" : 10497}, {"magFilter" : 9728, "minFilter" : 9985, "wrapS" : 10497, "wrapT" : 10497}, {"magFilter" : 9728, "minFilter" : 9985, "wrapS" : 10497, "wrapT" : 10497}, {"magFilter" : 9728, "minFilter" : 9985, "wrapS" : 10497, "wrapT" : 10497}, {"magFilter" : 9728, "minFilter" : 9985, "wrapS" : 10497, "wrapT" : 10497}, {"magFilter" : 9728, "minFilter" : 9985, "wrapS" : 10497, "wrapT" : 10497}], "scene" : 0, "scenes" : [{"nodes" : [7]}], "textures" : [{"sampler" : 0, "source" : 0}, {"sampler" : 1, "source" : 1}, {"sampler" : 2, "source" : 2}, {"sampler" : 3, "source" : 3}, {"sampler" : 4, "source" : 4}, {"sampler" : 5, "source" : 5}, {"sampler" : 6, "source" : 6}, {"sampler" : 7, "source" : 7}, {"sampler" : 8, "source" : 8}, {"sampler" : 9, "source" : 9}, {"sampler" : 10, "source" : 10}, {"sampler" : 11, "source" : 11}]}