{"extensionsUsed" : ["KHR_materials_pbrSpecularGlossiness"], "accessors" : [{"bufferView" : 0, "byteOffset" : 0, "componentType" : 5123, "count" : 864, "type" : "SCALAR", "max" : [727], "min" : [0]}, {"bufferView" : 1, "byteOffset" : 0, "componentType" : 5126, "count" : 728, "type" : "VEC3", "max" : [11.172300338745117, 8.441108703613281, -7.324767112731934], "min" : [-11.127511024475098, 1.0120301246643066, -16.794212341308594], "name" : "POSITION"}, {"bufferView" : 1, "byteOffset" : 12, "componentType" : 5126, "count" : 728, "type" : "VEC3", "max" : [0.997617244720459, 0.9868830442428589, 0.7237024307250977], "min" : [-0.9918128252029419, -0.9953380823135376, -0.9972684979438782], "name" : "NORMAL"}, {"bufferView" : 0, "byteOffset" : 1728, "componentType" : 5123, "count" : 1248, "type" : "SCALAR", "max" : [1056], "min" : [0]}, {"bufferView" : 2, "byteOffset" : 0, "componentType" : 5126, "count" : 1057, "type" : "VEC3", "max" : [1.7403643131256104, 22.55562973022461, -2.3851001262664795], "min" : [-1.7403959035873413, -8.288734436035156, -36.42247772216797], "name" : "POSITION"}, {"bufferView" : 2, "byteOffset" : 12, "componentType" : 5126, "count" : 1057, "type" : "VEC3", "max" : [0.9988261461257935, 0.9994840025901794, 0.8524835705757141], "min" : [-0.9988261461257935, -0.9958469867706299, -0.9994136691093445], "name" : "NORMAL"}, {"bufferView" : 0, "byteOffset" : 4224, "componentType" : 5123, "count" : 7308, "type" : "SCALAR", "max" : [6100], "min" : [0]}, {"bufferView" : 3, "byteOffset" : 0, "componentType" : 5126, "count" : 6101, "type" : "VEC3", "max" : [7.982386589050293, 21.240230560302734, 10.952579498291016], "min" : [-7.889020919799805, -2.7133846282958984, -51.4994010925293], "name" : "POSITION"}, {"bufferView" : 3, "byteOffset" : 12, "componentType" : 5126, "count" : 6101, "type" : "VEC3", "max" : [1.0000044107437134, 0.9999980926513672, 0.9932460188865662], "min" : [-0.9993333220481873, -0.9997867345809937, -0.9998734593391418], "name" : "NORMAL"}, {"bufferView" : 0, "byteOffset" : 18840, "componentType" : 5123, "count" : 2496, "type" : "SCALAR", "max" : [2093], "min" : [0]}, {"bufferView" : 4, "byteOffset" : 0, "componentType" : 5126, "count" : 2094, "type" : "VEC3", "max" : [6.820556163787842, 18.121076583862305, 1.165226936340332], "min" : [-6.820586681365967, 12.007245063781738, -4.9764299392700195], "name" : "POSITION"}, {"bufferView" : 4, "byteOffset" : 12, "componentType" : 5126, "count" : 2094, "type" : "VEC3", "max" : [0.9925031661987305, 0.9999716281890869, 0.9948920011520386], "min" : [-0.9925031661987305, -0.9999717473983765, -0.9950498342514038], "name" : "NORMAL"}, {"bufferView" : 0, "byteOffset" : 23832, "componentType" : 5123, "count" : 192, "type" : "SCALAR", "max" : [168], "min" : [0]}, {"bufferView" : 5, "byteOffset" : 0, "componentType" : 5126, "count" : 169, "type" : "VEC3", "max" : [6.621546268463135, 16.915271759033203, 1.0994455814361572], "min" : [-6.621577739715576, 14.310548782348633, -0.4396200180053711], "name" : "POSITION"}, {"bufferView" : 5, "byteOffset" : 12, "componentType" : 5126, "count" : 169, "type" : "VEC3", "max" : [0.9223891496658325, 0.6157059669494629, 0.97141432762146], "min" : [-0.9223895072937012, -0.2843131721019745, 0.3532358407974243], "name" : "NORMAL"}], "asset" : {"generator" : "Aspose.3D 21.8.1", "version" : "2.0"}, "buffers" : [{"uri" : "data:application/octet-stream;base64,", "byteLength" : 314832}], "bufferViews" : [{"buffer" : 0, "byteOffset" : 0, "byteLength" : 24216, "target" : 34963}, {"buffer" : 0, "byteOffset" : 24220, "byteLength" : 20736, "byteStride" : 24, "target" : 34962}, {"buffer" : 0, "byteOffset" : 44960, "byteLength" : 29952, "byteStride" : 24, "target" : 34962}, {"buffer" : 0, "byteOffset" : 74916, "byteLength" : 175392, "byteStride" : 24, "target" : 34962}, {"buffer" : 0, "byteOffset" : 250312, "byteLength" : 59904, "byteStride" : 24, "target" : 34962}, {"buffer" : 0, "byteOffset" : 310220, "byteLength" : 4608, "byteStride" : 24, "target" : 34962}], "images" : [{"uri" : "data:image/png;base64,"}, {"uri" : "data:image/png;base64,"}, {"uri" : "data:image/png;base64,"}, {"uri" : "data:image/png;base64,"}, {"uri" : "data:image/png;base64,"}, {"uri" : "data:image/png;base64,"}, {"uri" : "data:image/png;base64,"}, {"uri" : "data:image/png;base64,"}, {"uri" : "data:image/png;base64,"}, {"uri" : "data:image/png;base64,"}, {"uri" : "data:image/png;base64,"}, {"uri" : "data:image/png;base64,"}, {"uri" : "data:image/png;base64,"}, {"uri" : "data:image/png;base64,"}, {"uri" : "data:image/png;base64,"}, {"uri" : "data:image/png;base64,"}], "materials" : [{"name" : "", "extensions" : {"KHR_materials_pbrSpecularGlossiness" : {"diffuseFactor" : [1, 1, 1, 1], "diffuseTexture" : {"index" : 0, "texCoord" : 0}, "specularFactor" : [1, 1, 1], "glossinessFactor" : 1, "specularGlossinessTexture" : {"index" : 1, "texCoord" : 0, "scale" : 1}}}, "pbrMetallicRoughness" : {"baseColorFactor" : [1, 1, 1, 1], "baseColorTexture" : {"index" : 2, "texCoord" : 0}, "metallicFactor" : 1, "roughnessFactor" : 1, "metallicRoughnessTexture" : {"index" : 3, "texCoord" : 0}}, "emissiveFactor" : [0, 0, 0], "alphaMode" : "OPAQUE", "doubleSided" : true}, {"name" : "", "extensions" : {"KHR_materials_pbrSpecularGlossiness" : {"diffuseFactor" : [1, 1, 1, 1], "diffuseTexture" : {"index" : 4, "texCoord" : 0}, "specularFactor" : [1, 1, 1], "glossinessFactor" : 1, "specularGlossinessTexture" : {"index" : 1, "texCoord" : 0, "scale" : 1}}}, "pbrMetallicRoughness" : {"baseColorFactor" : [1, 1, 1, 1], "baseColorTexture" : {"index" : 5, "texCoord" : 0}, "metallicFactor" : 1, "roughnessFactor" : 1, "metallicRoughnessTexture" : {"index" : 6, "texCoord" : 0}}, "emissiveFactor" : [0, 0, 0], "alphaMode" : "OPAQUE", "doubleSided" : true}, {"name" : "", "extensions" : {"KHR_materials_pbrSpecularGlossiness" : {"diffuseFactor" : [1, 1, 1, 1], "diffuseTexture" : {"index" : 7, "texCoord" : 0}, "specularFactor" : [1, 1, 1], "glossinessFactor" : 1, "specularGlossinessTexture" : {"index" : 1, "texCoord" : 0, "scale" : 1}}}, "pbrMetallicRoughness" : {"baseColorFactor" : [1, 1, 1, 1], "baseColorTexture" : {"index" : 8, "texCoord" : 0}, "metallicFactor" : 1, "roughnessFactor" : 1, "metallicRoughnessTexture" : {"index" : 9, "texCoord" : 0}}, "emissiveFactor" : [0, 0, 0], "alphaMode" : "OPAQUE", "doubleSided" : true}, {"name" : "", "extensions" : {"KHR_materials_pbrSpecularGlossiness" : {"diffuseFactor" : [1, 1, 1, 1], "diffuseTexture" : {"index" : 10, "texCoord" : 0}, "specularFactor" : [1, 1, 1], "glossinessFactor" : 1, "specularGlossinessTexture" : {"index" : 1, "texCoord" : 0, "scale" : 1}}}, "pbrMetallicRoughness" : {"baseColorFactor" : [1, 1, 1, 1], "baseColorTexture" : {"index" : 11, "texCoord" : 0}, "metallicFactor" : 1, "roughnessFactor" : 1, "metallicRoughnessTexture" : {"index" : 12, "texCoord" : 0}}, "emissiveFactor" : [0, 0, 0], "alphaMode" : "OPAQUE", "doubleSided" : true}, {"name" : "", "extensions" : {"KHR_materials_pbrSpecularGlossiness" : {"diffuseFactor" : [1, 1, 1, 1], "diffuseTexture" : {"index" : 13, "texCoord" : 0}, "specularFactor" : [1, 1, 1], "glossinessFactor" : 1, "specularGlossinessTexture" : {"index" : 1, "texCoord" : 0, "scale" : 1}}}, "pbrMetallicRoughness" : {"baseColorFactor" : [1, 1, 1, 1], "baseColorTexture" : {"index" : 14, "texCoord" : 0}, "metallicFactor" : 1, "roughnessFactor" : 1, "metallicRoughnessTexture" : {"index" : 15, "texCoord" : 0}}, "emissiveFactor" : [0, 0, 0], "alphaMode" : "OPAQUE", "doubleSided" : true}], "meshes" : [{"primitives" : [{"attributes" : {"POSITION" : 1, "NORMAL" : 2}, "indices" : 0, "material" : 0, "mode" : 4}]}, {"primitives" : [{"attributes" : {"POSITION" : 4, "NORMAL" : 5}, "indices" : 3, "material" : 1, "mode" : 4}]}, {"primitives" : [{"attributes" : {"POSITION" : 7, "NORMAL" : 8}, "indices" : 6, "material" : 2, "mode" : 4}]}, {"primitives" : [{"attributes" : {"POSITION" : 10, "NORMAL" : 11}, "indices" : 9, "material" : 3, "mode" : 4}]}, {"primitives" : [{"attributes" : {"POSITION" : 13, "NORMAL" : 14}, "indices" : 12, "material" : 4, "mode" : 4}]}], "nodes" : [{"matrix" : [16.599464416503906, 0, 0, 0, 0, 16.59946441650389, 7.255856344616919E-07, 0, 0, -7.255856344616919E-07, 16.59946441650389, 0, -0.37139892578125, -118.41143798828125, 854.8626098632812, 1], "mesh" : 0, "name" : "node_id31"}, {"matrix" : [16.599464416503906, 0, 0, 0, 0, 16.59946441650389, 7.255856344616919E-07, 0, 0, -7.255856344616919E-07, 16.59946441650389, 0, -0.37139892578125, -118.41143798828125, 854.8626098632812, 1], "mesh" : 1, "name" : "node_id33"}, {"matrix" : [16.599464416503906, 0, 0, 0, 0, 16.59946441650389, 7.255856344616919E-07, 0, 0, -7.255856344616919E-07, 16.59946441650389, 0, -0.37139892578125, -118.41143798828125, 854.8626098632812, 1], "mesh" : 2, "name" : "node_id35"}, {"matrix" : [16.599464416503906, 0, 0, 0, 0, 16.59946441650389, 7.255856344616919E-07, 0, 0, -7.255856344616919E-07, 16.59946441650389, 0, -0.37139892578125, -118.41143798828125, 854.8626098632812, 1], "mesh" : 3, "name" : "node_id37"}, {"matrix" : [16.599464416503906, 0, 0, 0, 0, 16.59946441650389, 7.255856344616919E-07, 0, 0, -7.255856344616919E-07, 16.59946441650389, 0, -0.37139892578125, -118.41143798828125, 854.8626098632812, 1], "mesh" : 4, "name" : "node_id39"}, {"children" : [0, 1, 2, 3, 4], "matrix" : [0.0006923066984457103, 0, -0.0007216034237454527, 0, 0, 0.0010000000474974513, 0, 0, 0.0007216034237454527, 0, 0.0006923066984457103, 0, -0.37403208017349243, 0.07500000298023224, 0.15948855876922607, 1], "name" : "node_id41"}, {"children" : [5], "name" : "root"}], "samplers" : [{"magFilter" : 9728, "minFilter" : 9985, "wrapS" : 10497, "wrapT" : 10497}, {"magFilter" : 9728, "minFilter" : 9985, "wrapS" : 10497, "wrapT" : 10497}, {"magFilter" : 9728, "minFilter" : 9985, "wrapS" : 10497, "wrapT" : 10497}, {"magFilter" : 9728, "minFilter" : 9985, "wrapS" : 10497, "wrapT" : 10497}, {"magFilter" : 9728, "minFilter" : 9985, "wrapS" : 10497, "wrapT" : 10497}, {"magFilter" : 9728, "minFilter" : 9985, "wrapS" : 10497, "wrapT" : 10497}, {"magFilter" : 9728, "minFilter" : 9985, "wrapS" : 10497, "wrapT" : 10497}, {"magFilter" : 9728, "minFilter" : 9985, "wrapS" : 10497, "wrapT" : 10497}, {"magFilter" : 9728, "minFilter" : 9985, "wrapS" : 10497, "wrapT" : 10497}, {"magFilter" : 9728, "minFilter" : 9985, "wrapS" : 10497, "wrapT" : 10497}, {"magFilter" : 9728, "minFilter" : 9985, "wrapS" : 10497, "wrapT" : 10497}, {"magFilter" : 9728, "minFilter" : 9985, "wrapS" : 10497, "wrapT" : 10497}, {"magFilter" : 9728, "minFilter" : 9985, "wrapS" : 10497, "wrapT" : 10497}, {"magFilter" : 9728, "minFilter" : 9985, "wrapS" : 10497, "wrapT" : 10497}, {"magFilter" : 9728, "minFilter" : 9985, "wrapS" : 10497, "wrapT" : 10497}, {"magFilter" : 9728, "minFilter" : 9985, "wrapS" : 10497, "wrapT" : 10497}], "scene" : 0, "scenes" : [{"nodes" : [6]}], "textures" : [{"sampler" : 0, "source" : 0}, {"sampler" : 1, "source" : 1}, {"sampler" : 2, "source" : 2}, {"sampler" : 3, "source" : 3}, {"sampler" : 4, "source" : 4}, {"sampler" : 5, "source" : 5}, {"sampler" : 6, "source" : 6}, {"sampler" : 7, "source" : 7}, {"sampler" : 8, "source" : 8}, {"sampler" : 9, "source" : 9}, {"sampler" : 10, "source" : 10}, {"sampler" : 11, "source" : 11}, {"sampler" : 12, "source" : 12}, {"sampler" : 13, "source" : 13}, {"sampler" : 14, "source" : 14}, {"sampler" : 15, "source" : 15}]}